<?xml version="1.0" encoding="UTF-8"?>
<svg id="goker-cover" xmlns="http://www.w3.org/2000/svg" version="1.1" viewBox="0 0 1200 400">
    <defs>
        <style>
            .st0 {
                fill: #fbb040;
            }

            .st1 {
                fill: #fff;
            }

            .st2 {
                stroke-width: .7px;
            }

            .st2,
            .st3,
            .st4,
            .st5,
            .st6,
            .st7,
            .st8,
            .st9 {
                stroke: #231f20;
            }

            .st2,
            .st3,
            .st4,
            .st5,
            .st6,
            .st7,
            .st8,
            .st9,
            .st11,
            .st12 {
                stroke-linecap: round;
                stroke-linejoin: round;
            }

            .st2,
            .st3,
            .st4,
            .st5,
            .st11 {
                fill: none;
            }

            .st3,
            .st7 {
                stroke-width: .7px;
            }

            .st4 {
                stroke-width: .7px;
            }

            .st5,
            .st12 {
                stroke-width: .6px;
            }

            .st13 {
                opacity: .8;
            }

            .st6 {
                stroke-width: .7px;
            }

            .st6,
            .st7,
            .st8,
            .st9,
            .st12 {
                fill: rgb(13, 17, 23);
            }

            .st8 {
                stroke-width: .3px;
            }

            .st9 {
                stroke-width: 1px;
            }

            .st10 {
                fill: transparent;
            }

            .st11 {
                stroke: #414042;
                stroke-width: 1.8px;
            }

            .st12 {
                stroke: #fff;
            }
        </style>
    </defs>
    <rect id="bg" class="st10" x=".7" y=".7" width="1198.5" height="398.5" />
    <g id="light-rays">
        <line class="st11" x1="747.8" y1="-83.4" x2="734.6" y2="-70.2" />
        <line class="st11" x1="702.7" y1="-38.3" x2="625.8" y2="38.6" />
        <line class="st11" x1="565.3" y1="99" x2="610.4" y2="54" />
        <line class="st11" x1="777.4" y1="-113" x2="864.2" y2="-197.7" />
        <line class="st11" x1="890.6" y1="-224" x2="877.4" y2="-210.8" />
        <line class="st11" x1="923.6" y1="-257" x2="907.1" y2="-240.5" />
        <line class="st11" x1="444.5" y1="-454.8" x2="444.5" y2="-432.8" />
        <line class="st11" x1="-34.7" y1="-257" x2="-18.2" y2="-240.5" />
        <line class="st11" x1="-232.5" y1="222.1" x2="-210.5" y2="222.1" />
        <line class="st11" x1="-34.7" y1="701.2" x2="-18.2" y2="684.8" />
        <line class="st11" x1="444.5" y1="899" x2="444.5" y2="877.1" />
        <line class="st11" x1="923.6" y1="701.2" x2="907.1" y2="684.8" />
        <line class="st11" x1="1121.4" y1="222.1" x2="1099.4" y2="222.1" />
        <line class="st11" x1="674.1" y1="-66.9" x2="685.1" y2="-80.1" />
        <line class="st11" x1="767.5" y1="-182.3" x2="742.3" y2="-150.4" />
        <line class="st11" x1="791.7" y1="-213" x2="781.8" y2="-201" />
        <line class="st11" x1="591.7" y1="37.5" x2="652.1" y2="-38.3" />
        <line class="st11" x1="708.2" y1="-107.6" x2="731.3" y2="-137.2" />
        <line class="st11" x1="803.8" y1="-227.3" x2="835.7" y2="-265.8" />
        <line class="st11" x1="546.7" y1="91.3" x2="577.4" y2="54" />
        <line class="st11" x1="634.6" y1="-93.3" x2="625.8" y2="-80.1" />
        <line class="st11" x1="669.7" y1="-150.4" x2="646.7" y2="-111.9" />
        <line class="st11" x1="685.1" y1="-176.8" x2="677.4" y2="-164.7" />
        <line class="st11" x1="712.6" y1="-219.6" x2="692.8" y2="-188.9" />
        <line class="st11" x1="741.2" y1="-268" x2="723.6" y2="-239.4" />
        <line class="st11" x1="615.9" y1="-61.4" x2="578.5" y2=".1" />
        <line class="st11" x1="590.6" y1="-121.8" x2="585.1" y2="-107.6" />
        <line class="st11" x1="625.8" y1="-201" x2="606" y2="-154.8" />
        <line class="st11" x1="652.1" y1="-262.5" x2="633.5" y2="-219.6" />
        <line class="st11" x1="666.4" y1="-296.6" x2="657.6" y2="-276.8" />
        <line class="st11" x1="742.3" y1="-269.1" x2="741.2" y2="-268" />
        <line class="st11" x1="528" y1="24.3" x2="509.3" y2="69.4" />
        <line class="st11" x1="573" y1="-80.1" x2="536.8" y2="4.5" />
        <line class="st11" x1="565.3" y1="19.9" x2="535.7" y2="69.4" />
        <line class="st11" x1="445.6" y1="-209.8" x2="445.6" y2="-190" />
        <line class="st11" x1="444.5" y1="-250.4" x2="444.5" y2="-371.3" />
        <line class="st11" x1="445.6" y1="-409.8" x2="445.6" y2="-390" />
        <line class="st11" x1="485.1" y1="-143.8" x2="487.3" y2="-161.4" />
        <line class="st11" x1="501.6" y1="-292.2" x2="497.2" y2="-250.4" />
        <line class="st11" x1="506" y1="-329.5" x2="504.9" y2="-315.2" />
        <line class="st11" x1="471.9" y1="-11.9" x2="481.8" y2="-107.6" />
        <line class="st11" x1="491.7" y1="-196.6" x2="495" y2="-235" />
        <line class="st11" x1="508.2" y1="-349.3" x2="512.6" y2="-399.9" />
        <line class="st11" x1="464.2" y1="57.3" x2="468.6" y2="8.9" />
        <line class="st11" x1="532.4" y1="-136.1" x2="529.1" y2="-119.6" />
        <line class="st11" x1="547.8" y1="-199.9" x2="537.9" y2="-157" />
        <line class="st11" x1="555.4" y1="-229.5" x2="553.2" y2="-216.3" />
        <line class="st11" x1="567.5" y1="-279" x2="559.8" y2="-244.9" />
        <line class="st11" x1="580.7" y1="-333.9" x2="573" y2="-302.1" />
        <line class="st11" x1="523.6" y1="-98.8" x2="507.1" y2="-29.5" />
        <line class="st11" x1="581.8" y1="-335" x2="580.7" y2="-333.9" />
        <line class="st11" x1="501.6" y1="-6.5" x2="487.3" y2="49.6" />
        <line class="st11" x1="876.3" y1="221" x2="856.5" y2="221" />
        <line class="st11" x1="811.5" y1="222.1" x2="702.7" y2="221" />
        <line class="st11" x1="617" y1="221" x2="680.7" y2="221" />
        <line class="st11" x1="917" y1="222.1" x2="1037.9" y2="222.1" />
        <line class="st11" x1="1076.3" y1="221" x2="1056.5" y2="221" />
        <line class="st11" x1="810.4" y1="181.5" x2="828" y2="179.3" />
        <line class="st11" x1="958.7" y1="165" x2="917" y2="169.4" />
        <line class="st11" x1="996.1" y1="160.6" x2="981.8" y2="161.7" />
        <line class="st11" x1="678.5" y1="194.6" x2="774.1" y2="184.8" />
        <line class="st11" x1="863.1" y1="174.9" x2="901.6" y2="171.6" />
        <line class="st11" x1="1015.9" y1="158.4" x2="1066.4" y2="154" />
        <line class="st11" x1="609.3" y1="202.3" x2="657.6" y2="197.9" />
        <line class="st11" x1="802.7" y1="134.2" x2="786.2" y2="137.5" />
        <line class="st11" x1="866.4" y1="118.8" x2="823.6" y2="128.7" />
        <line class="st11" x1="896.1" y1="111.1" x2="882.9" y2="113.3" />
        <line class="st11" x1="945.6" y1="99" x2="911.5" y2="106.7" />
        <line class="st11" x1="1000.5" y1="85.9" x2="968.6" y2="93.5" />
        <line class="st11" x1="765.3" y1="143" x2="696.1" y2="159.5" />
        <line class="st11" x1="790.6" y1="82.6" x2="776.3" y2="88.1" />
        <line class="st11" x1="871.9" y1="49.6" x2="824.7" y2="68.3" />
        <line class="st11" x1="933.5" y1="25.4" x2="889.5" y2="43" />
        <line class="st11" x1="968.6" y1="12.2" x2="947.8" y2="19.9" />
        <line class="st11" x1="1001.6" y1="84.8" x2="1000.5" y2="85.9" />
        <line class="st11" x1="643.4" y1="141.9" x2="597.2" y2="159.5" />
        <line class="st11" x1="747.8" y1="99" x2="663.1" y2="133.1" />
        <line class="st11" x1="673" y1="165" x2="617" y2="179.3" />
        <line class="st11" x1="733.5" y1="-7.6" x2="746.7" y2="-18.5" />
        <line class="st11" x1="848.9" y1="-101" x2="817" y2="-75.7" />
        <line class="st11" x1="879.6" y1="-125.1" x2="867.5" y2="-115.2" />
        <line class="st11" x1="629.1" y1="74.9" x2="704.9" y2="14.4" />
        <line class="st11" x1="774.1" y1="-41.6" x2="803.8" y2="-64.7" />
        <line class="st11" x1="893.9" y1="-137.2" x2="932.4" y2="-169.1" />
        <line class="st11" x1="575.2" y1="119.9" x2="612.6" y2="89.2" />
        <line class="st11" x1="759.8" y1="32" x2="746.7" y2="40.8" />
        <line class="st11" x1="817" y1="-3.2" x2="778.5" y2="19.9" />
        <line class="st11" x1="843.4" y1="-18.5" x2="831.3" y2="-10.8" />
        <line class="st11" x1="886.2" y1="-46" x2="855.4" y2="-26.2" />
        <line class="st11" x1="934.6" y1="-74.6" x2="906" y2="-57" />
        <line class="st11" x1="728" y1="50.7" x2="666.4" y2="88.1" />
        <line class="st11" x1="935.7" y1="-75.7" x2="934.6" y2="-74.6" />
        <line class="st11" x1="646.7" y1="101.2" x2="597.2" y2="130.9" />
        <line class="st11" x1="139" y1="-81.2" x2="152.1" y2="-68" />
        <line class="st11" x1="184" y1="-36.1" x2="260.9" y2="40.8" />
        <line class="st11" x1="321.4" y1="101.2" x2="276.3" y2="56.2" />
        <line class="st11" x1="109.3" y1="-110.8" x2="24.7" y2="-197.7" />
        <line class="st11" x1="-1.7" y1="-224" x2="11.5" y2="-210.8" />
        <line class="st11" x1="155.4" y1="-7.6" x2="142.3" y2="-18.5" />
        <line class="st11" x1="40.1" y1="-101" x2="71.9" y2="-75.7" />
        <line class="st11" x1="9.3" y1="-125.1" x2="21.4" y2="-115.2" />
        <line class="st11" x1="259.8" y1="74.9" x2="184" y2="14.4" />
        <line class="st11" x1="114.8" y1="-41.6" x2="85.1" y2="-64.7" />
        <line class="st11" x1="-5" y1="-137.2" x2="-43.5" y2="-169.1" />
        <line class="st11" x1="313.7" y1="119.9" x2="276.3" y2="89.2" />
        <line class="st11" x1="129.1" y1="32" x2="142.3" y2="40.8" />
        <line class="st11" x1="71.9" y1="-3.2" x2="110.4" y2="19.9" />
        <line class="st11" x1="45.6" y1="-18.5" x2="57.6" y2="-10.8" />
        <line class="st11" x1="2.7" y1="-46" x2="33.5" y2="-26.2" />
        <line class="st11" x1="-45.7" y1="-74.6" x2="-17.1" y2="-57" />
        <line class="st11" x1="160.9" y1="50.7" x2="222.5" y2="88.1" />
        <line class="st11" x1="100.5" y1="76" x2="114.8" y2="81.5" />
        <line class="st11" x1="21.4" y1="40.8" x2="67.5" y2="60.6" />
        <line class="st11" x1="-40.2" y1="14.4" x2="2.7" y2="33.1" />
        <line class="st11" x1="-74.2" y1=".1" x2="-54.4" y2="8.9" />
        <line class="st11" x1="-46.8" y1="-75.7" x2="-45.7" y2="-74.6" />
        <line class="st11" x1="246.7" y1="138.6" x2="291.7" y2="157.3" />
        <line class="st11" x1="142.3" y1="93.5" x2="226.9" y2="129.8" />
        <line class="st11" x1="242.3" y1="101.2" x2="291.7" y2="130.9" />
        <line class="st11" x1="12.6" y1="221" x2="32.4" y2="221" />
        <line class="st11" x1="77.4" y1="222.1" x2="186.2" y2="221" />
        <line class="st11" x1="271.9" y1="221" x2="208.2" y2="221" />
        <line class="st11" x1="-28.1" y1="222.1" x2="-149" y2="222.1" />
        <line class="st11" x1="-187.4" y1="221" x2="-167.6" y2="221" />
        <line class="st11" x1="78.5" y1="181.5" x2="60.9" y2="179.3" />
        <line class="st11" x1="-69.8" y1="165" x2="-28.1" y2="169.4" />
        <line class="st11" x1="-107.2" y1="160.6" x2="-92.9" y2="161.7" />
        <line class="st11" x1="210.4" y1="194.6" x2="114.8" y2="184.8" />
        <line class="st11" x1="25.8" y1="174.9" x2="-12.7" y2="171.6" />
        <line class="st11" x1="-127" y1="158.4" x2="-177.5" y2="154" />
        <line class="st11" x1="279.6" y1="202.3" x2="231.3" y2="197.9" />
        <line class="st11" x1="86.2" y1="134.2" x2="102.7" y2="137.5" />
        <line class="st11" x1="22.5" y1="118.8" x2="65.3" y2="128.7" />
        <line class="st11" x1="-7.2" y1="111.1" x2="6" y2="113.3" />
        <line class="st11" x1="-56.6" y1="99" x2="-22.6" y2="106.7" />
        <line class="st11" x1="-111.6" y1="85.9" x2="-79.7" y2="93.5" />
        <line class="st11" x1="123.6" y1="143" x2="192.8" y2="159.5" />
        <line class="st11" x1="-112.7" y1="84.8" x2="-111.6" y2="85.9" />
        <line class="st11" x1="215.9" y1="165" x2="271.9" y2="179.3" />
        <line class="st11" x1="444.5" y1="-144.9" x2="443.4" y2="-36.1" />
        <line class="st11" x1="443.4" y1="49.6" x2="443.4" y2="-14.1" />
        <path class="st11" d="M444.5-371.3" />
        <line class="st11" x1="443.4" y1="-409.8" x2="443.4" y2="-390" />
        <line class="st11" x1="403.8" y1="-143.8" x2="401.6" y2="-161.4" />
        <line class="st11" x1="387.3" y1="-292.2" x2="391.7" y2="-250.4" />
        <line class="st11" x1="382.9" y1="-329.5" x2="384" y2="-315.2" />
        <line class="st11" x1="417" y1="-11.9" x2="407.1" y2="-107.6" />
        <line class="st11" x1="397.2" y1="-196.6" x2="393.9" y2="-235" />
        <line class="st11" x1="380.7" y1="-349.3" x2="376.3" y2="-399.9" />
        <line class="st11" x1="424.7" y1="57.3" x2="420.3" y2="8.9" />
        <line class="st11" x1="356.5" y1="-136.1" x2="359.8" y2="-119.6" />
        <line class="st11" x1="341.2" y1="-199.9" x2="351" y2="-157" />
        <line class="st11" x1="333.5" y1="-229.5" x2="335.7" y2="-216.3" />
        <line class="st11" x1="321.4" y1="-279" x2="329.1" y2="-244.9" />
        <line class="st11" x1="308.2" y1="-333.9" x2="315.9" y2="-302.1" />
        <line class="st11" x1="365.3" y1="-98.8" x2="381.8" y2="-29.5" />
        <line class="st11" x1="304.9" y1="-124" x2="310.4" y2="-109.7" />
        <line class="st11" x1="271.9" y1="-205.4" x2="290.6" y2="-158.1" />
        <line class="st11" x1="247.8" y1="-266.9" x2="265.3" y2="-222.9" />
        <line class="st11" x1="234.6" y1="-302.1" x2="242.3" y2="-281.2" />
        <line class="st11" x1="307.1" y1="-335" x2="308.2" y2="-333.9" />
        <line class="st11" x1="364.2" y1="23.2" x2="381.8" y2="69.4" />
        <line class="st11" x1="321.4" y1="-81.2" x2="355.4" y2="3.4" />
        <line class="st11" x1="387.3" y1="-6.5" x2="401.6" y2="49.6" />
        <line class="st11" x1="214.8" y1="-66.9" x2="203.8" y2="-80.1" />
        <line class="st11" x1="121.4" y1="-182.3" x2="146.7" y2="-150.4" />
        <line class="st11" x1="97.2" y1="-213" x2="107.1" y2="-201" />
        <line class="st11" x1="297.2" y1="37.5" x2="236.8" y2="-38.3" />
        <line class="st11" x1="180.7" y1="-107.6" x2="157.6" y2="-137.2" />
        <line class="st11" x1="85.1" y1="-227.3" x2="53.2" y2="-265.8" />
        <line class="st11" x1="342.3" y1="91.3" x2="311.5" y2="54" />
        <line class="st11" x1="254.3" y1="-93.3" x2="263.1" y2="-80.1" />
        <line class="st11" x1="219.2" y1="-150.4" x2="242.3" y2="-111.9" />
        <line class="st11" x1="203.8" y1="-176.8" x2="211.5" y2="-164.7" />
        <line class="st11" x1="176.3" y1="-219.6" x2="196.1" y2="-188.9" />
        <line class="st11" x1="147.8" y1="-268" x2="165.3" y2="-239.4" />
        <line class="st11" x1="273" y1="-61.4" x2="310.4" y2=".1" />
        <line class="st11" x1="146.7" y1="-269.1" x2="147.8" y2="-268" />
        <line class="st11" x1="323.6" y1="19.9" x2="353.2" y2="69.4" />
        <line class="st11" x1="141.2" y1="527.6" x2="154.3" y2="514.4" />
        <line class="st11" x1="186.2" y1="482.6" x2="263.1" y2="405.6" />
        <line class="st11" x1="323.6" y1="345.2" x2="278.5" y2="390.3" />
        <line class="st11" x1="111.5" y1="557.3" x2="24.7" y2="641.9" />
        <line class="st11" x1="-1.7" y1="668.3" x2="11.5" y2="655.1" />
        <line class="st11" x1="214.8" y1="511.1" x2="203.8" y2="524.3" />
        <line class="st11" x1="121.4" y1="626.5" x2="146.7" y2="594.6" />
        <line class="st11" x1="97.2" y1="657.3" x2="107.1" y2="645.2" />
        <line class="st11" x1="297.2" y1="406.7" x2="236.8" y2="482.6" />
        <line class="st11" x1="180.7" y1="551.8" x2="157.6" y2="581.5" />
        <line class="st11" x1="85.1" y1="671.6" x2="53.2" y2="710" />
        <line class="st11" x1="342.3" y1="352.9" x2="311.5" y2="390.3" />
        <line class="st11" x1="254.3" y1="537.5" x2="263.1" y2="524.3" />
        <line class="st11" x1="219.2" y1="594.6" x2="242.3" y2="556.2" />
        <line class="st11" x1="203.8" y1="621" x2="211.5" y2="608.9" />
        <line class="st11" x1="176.3" y1="663.9" x2="196.1" y2="633.1" />
        <line class="st11" x1="147.8" y1="712.2" x2="165.3" y2="683.7" />
        <line class="st11" x1="273" y1="505.6" x2="310.4" y2="444.1" />
        <line class="st11" x1="298.3" y1="566.1" x2="303.8" y2="551.8" />
        <line class="st11" x1="263.1" y1="645.2" x2="282.9" y2="599" />
        <line class="st11" x1="236.8" y1="706.7" x2="255.4" y2="663.9" />
        <line class="st11" x1="222.5" y1="740.8" x2="231.3" y2="721" />
        <line class="st11" x1="146.7" y1="713.3" x2="147.8" y2="712.2" />
        <line class="st11" x1="360.9" y1="419.9" x2="379.6" y2="374.9" />
        <line class="st11" x1="315.9" y1="524.3" x2="352.1" y2="439.7" />
        <line class="st11" x1="323.6" y1="424.3" x2="353.2" y2="374.9" />
        <line class="st11" x1="403.8" y1="588.1" x2="401.6" y2="605.6" />
        <line class="st11" x1="387.3" y1="736.4" x2="391.7" y2="694.6" />
        <line class="st11" x1="382.9" y1="773.8" x2="384" y2="759.5" />
        <line class="st11" x1="417" y1="456.2" x2="407.1" y2="551.8" />
        <line class="st11" x1="397.2" y1="640.8" x2="393.9" y2="679.3" />
        <line class="st11" x1="380.7" y1="793.5" x2="376.3" y2="844.1" />
        <line class="st11" x1="424.7" y1="387" x2="420.3" y2="435.3" />
        <line class="st11" x1="356.5" y1="580.4" x2="359.8" y2="563.9" />
        <line class="st11" x1="341.2" y1="644.1" x2="351" y2="601.2" />
        <line class="st11" x1="333.5" y1="673.8" x2="335.7" y2="660.6" />
        <line class="st11" x1="321.4" y1="723.2" x2="329.1" y2="689.2" />
        <line class="st11" x1="308.2" y1="778.2" x2="315.9" y2="746.3" />
        <line class="st11" x1="365.3" y1="543" x2="381.8" y2="473.8" />
        <line class="st11" x1="307.1" y1="779.3" x2="308.2" y2="778.2" />
        <line class="st11" x1="387.3" y1="450.7" x2="401.6" y2="394.6" />
        <line class="st11" x1="78.5" y1="262.8" x2="60.9" y2="265" />
        <line class="st11" x1="-69.8" y1="279.3" x2="-28.1" y2="274.9" />
        <line class="st11" x1="-107.2" y1="283.7" x2="-92.9" y2="282.6" />
        <line class="st11" x1="210.4" y1="249.6" x2="114.8" y2="259.5" />
        <line class="st11" x1="25.8" y1="269.4" x2="-12.7" y2="272.7" />
        <line class="st11" x1="-127" y1="285.9" x2="-177.5" y2="290.3" />
        <line class="st11" x1="279.6" y1="241.9" x2="231.3" y2="246.3" />
        <line class="st11" x1="86.2" y1="310" x2="102.7" y2="306.7" />
        <line class="st11" x1="22.5" y1="325.4" x2="65.3" y2="315.5" />
        <line class="st11" x1="-7.2" y1="333.1" x2="6" y2="330.9" />
        <line class="st11" x1="-56.6" y1="345.2" x2="-22.6" y2="337.5" />
        <line class="st11" x1="-111.6" y1="358.4" x2="-79.7" y2="350.7" />
        <line class="st11" x1="123.6" y1="301.2" x2="192.8" y2="284.8" />
        <line class="st11" x1="98.3" y1="361.7" x2="112.6" y2="356.2" />
        <line class="st11" x1="17" y1="394.6" x2="64.2" y2="376" />
        <line class="st11" x1="-44.6" y1="418.8" x2="-.6" y2="401.2" />
        <line class="st11" x1="-79.7" y1="432" x2="-58.8" y2="424.3" />
        <line class="st11" x1="-112.7" y1="359.5" x2="-111.6" y2="358.4" />
        <line class="st11" x1="245.6" y1="302.3" x2="291.7" y2="284.8" />
        <line class="st11" x1="141.2" y1="345.2" x2="225.8" y2="311.1" />
        <line class="st11" x1="215.9" y1="279.3" x2="271.9" y2="265" />
        <line class="st11" x1="155.4" y1="451.8" x2="142.3" y2="462.8" />
        <line class="st11" x1="40.1" y1="545.2" x2="71.9" y2="519.9" />
        <line class="st11" x1="9.3" y1="569.4" x2="21.4" y2="559.5" />
        <line class="st11" x1="259.8" y1="369.4" x2="184" y2="429.8" />
        <line class="st11" x1="114.8" y1="485.9" x2="85.1" y2="508.9" />
        <line class="st11" x1="-5" y1="581.5" x2="-43.5" y2="613.3" />
        <line class="st11" x1="313.7" y1="324.3" x2="276.3" y2="355.1" />
        <line class="st11" x1="129.1" y1="412.2" x2="142.3" y2="403.4" />
        <line class="st11" x1="71.9" y1="447.4" x2="110.4" y2="424.3" />
        <line class="st11" x1="45.6" y1="462.8" x2="57.6" y2="455.1" />
        <line class="st11" x1="2.7" y1="490.3" x2="33.5" y2="470.5" />
        <line class="st11" x1="-45.7" y1="518.8" x2="-17.1" y2="501.2" />
        <line class="st11" x1="160.9" y1="393.5" x2="222.5" y2="356.2" />
        <line class="st11" x1="-46.8" y1="519.9" x2="-45.7" y2="518.8" />
        <line class="st11" x1="242.3" y1="343" x2="291.7" y2="313.3" />
        <line class="st11" x1="749.9" y1="525.4" x2="736.8" y2="512.2" />
        <line class="st11" x1="704.9" y1="480.4" x2="628" y2="403.4" />
        <line class="st11" x1="567.5" y1="343" x2="612.6" y2="388.1" />
        <line class="st11" x1="779.6" y1="555.1" x2="864.2" y2="641.9" />
        <line class="st11" x1="890.6" y1="668.3" x2="877.4" y2="655.1" />
        <line class="st11" x1="733.5" y1="451.8" x2="746.7" y2="462.8" />
        <line class="st11" x1="848.9" y1="545.2" x2="817" y2="519.9" />
        <line class="st11" x1="879.6" y1="569.4" x2="867.5" y2="559.5" />
        <line class="st11" x1="629.1" y1="369.4" x2="704.9" y2="429.8" />
        <line class="st11" x1="774.1" y1="485.9" x2="803.8" y2="508.9" />
        <line class="st11" x1="893.9" y1="581.5" x2="932.4" y2="613.3" />
        <line class="st11" x1="575.2" y1="324.3" x2="612.6" y2="355.1" />
        <line class="st11" x1="759.8" y1="412.2" x2="746.7" y2="403.4" />
        <line class="st11" x1="817" y1="447.4" x2="778.5" y2="424.3" />
        <line class="st11" x1="843.4" y1="462.8" x2="831.3" y2="455.1" />
        <line class="st11" x1="886.2" y1="490.3" x2="855.4" y2="470.5" />
        <line class="st11" x1="934.6" y1="518.8" x2="906" y2="501.2" />
        <line class="st11" x1="728" y1="393.5" x2="666.4" y2="356.2" />
        <line class="st11" x1="788.4" y1="368.3" x2="774.1" y2="362.8" />
        <line class="st11" x1="867.5" y1="403.4" x2="821.4" y2="383.7" />
        <line class="st11" x1="929.1" y1="429.8" x2="886.2" y2="411.1" />
        <line class="st11" x1="963.1" y1="444.1" x2="943.4" y2="435.3" />
        <line class="st11" x1="935.7" y1="519.9" x2="934.6" y2="518.8" />
        <line class="st11" x1="642.3" y1="305.6" x2="597.2" y2="287" />
        <line class="st11" x1="746.7" y1="350.7" x2="662" y2="314.4" />
        <line class="st11" x1="646.7" y1="343" x2="597.2" y2="313.3" />
        <line class="st11" x1="810.4" y1="262.8" x2="828" y2="265" />
        <line class="st11" x1="958.7" y1="279.3" x2="917" y2="274.9" />
        <line class="st11" x1="996.1" y1="283.7" x2="981.8" y2="282.6" />
        <line class="st11" x1="678.5" y1="249.6" x2="774.1" y2="259.5" />
        <line class="st11" x1="863.1" y1="269.4" x2="901.6" y2="272.7" />
        <line class="st11" x1="1015.9" y1="285.9" x2="1066.4" y2="290.3" />
        <line class="st11" x1="609.3" y1="241.9" x2="657.6" y2="246.3" />
        <line class="st11" x1="802.7" y1="310" x2="786.2" y2="306.7" />
        <line class="st11" x1="866.4" y1="325.4" x2="823.6" y2="315.5" />
        <line class="st11" x1="896.1" y1="333.1" x2="882.9" y2="330.9" />
        <line class="st11" x1="945.6" y1="345.2" x2="911.5" y2="337.5" />
        <line class="st11" x1="1000.5" y1="358.4" x2="968.6" y2="350.7" />
        <line class="st11" x1="765.3" y1="301.2" x2="696.1" y2="284.8" />
        <line class="st11" x1="1001.6" y1="359.5" x2="1000.5" y2="358.4" />
        <line class="st11" x1="673" y1="279.3" x2="617" y2="265" />
        <line class="st11" x1="445.6" y1="654" x2="445.6" y2="634.2" />
        <line class="st11" x1="444.5" y1="589.2" x2="445.6" y2="480.4" />
        <line class="st11" x1="445.6" y1="394.6" x2="445.6" y2="458.4" />
        <line class="st11" x1="444.5" y1="694.6" x2="444.5" y2="815.5" />
        <line class="st11" x1="445.6" y1="854" x2="445.6" y2="834.2" />
        <line class="st11" x1="485.1" y1="588.1" x2="487.3" y2="605.6" />
        <line class="st11" x1="501.6" y1="736.4" x2="497.2" y2="694.6" />
        <line class="st11" x1="506" y1="773.8" x2="504.9" y2="759.5" />
        <line class="st11" x1="471.9" y1="456.2" x2="481.8" y2="551.8" />
        <line class="st11" x1="491.7" y1="640.8" x2="495" y2="679.3" />
        <line class="st11" x1="508.2" y1="793.5" x2="512.6" y2="844.1" />
        <line class="st11" x1="464.2" y1="387" x2="468.6" y2="435.3" />
        <line class="st11" x1="532.4" y1="580.4" x2="529.1" y2="563.9" />
        <line class="st11" x1="547.8" y1="644.1" x2="537.9" y2="601.2" />
        <line class="st11" x1="555.4" y1="673.8" x2="553.2" y2="660.6" />
        <line class="st11" x1="567.5" y1="723.2" x2="559.8" y2="689.2" />
        <line class="st11" x1="580.7" y1="778.2" x2="573" y2="746.3" />
        <line class="st11" x1="523.6" y1="543" x2="507.1" y2="473.8" />
        <line class="st11" x1="584" y1="568.3" x2="578.5" y2="554" />
        <line class="st11" x1="617" y1="649.6" x2="598.3" y2="602.3" />
        <line class="st11" x1="641.2" y1="711.1" x2="623.6" y2="667.2" />
        <line class="st11" x1="654.3" y1="746.3" x2="646.7" y2="725.4" />
        <line class="st11" x1="581.8" y1="779.3" x2="580.7" y2="778.2" />
        <line class="st11" x1="524.7" y1="421" x2="507.1" y2="374.9" />
        <line class="st11" x1="567.5" y1="525.4" x2="533.5" y2="440.8" />
        <line class="st11" x1="501.6" y1="450.7" x2="487.3" y2="394.6" />
        <line class="st11" x1="674.1" y1="511.1" x2="685.1" y2="524.3" />
        <line class="st11" x1="767.5" y1="626.5" x2="742.3" y2="594.6" />
        <line class="st11" x1="791.7" y1="657.3" x2="781.8" y2="645.2" />
        <line class="st11" x1="591.7" y1="406.7" x2="652.1" y2="482.6" />
        <line class="st11" x1="708.2" y1="551.8" x2="731.3" y2="581.5" />
        <line class="st11" x1="803.8" y1="671.6" x2="835.7" y2="710" />
        <line class="st11" x1="546.7" y1="352.9" x2="577.4" y2="390.3" />
        <line class="st11" x1="634.6" y1="537.5" x2="625.8" y2="524.3" />
        <line class="st11" x1="669.7" y1="594.6" x2="646.7" y2="556.2" />
        <line class="st11" x1="685.1" y1="621" x2="677.4" y2="608.9" />
        <line class="st11" x1="712.6" y1="663.9" x2="692.8" y2="633.1" />
        <line class="st11" x1="741.2" y1="712.2" x2="723.6" y2="683.7" />
        <line class="st11" x1="615.9" y1="505.6" x2="578.5" y2="444.1" />
        <line class="st11" x1="742.3" y1="713.3" x2="741.2" y2="712.2" />
        <line class="st11" x1="565.3" y1="424.3" x2="535.7" y2="374.9" />
    </g>
    <g id="sun" class="st13">
        <path class="st0"
            d="M448.3,59.1c-11.2,17.2,8.6,25.7,1.5,49.6-5.6,18.3-7.1,38.1.4,64.6-12.3-19.8-15.3-44-10.1-60.8,8.2-27.6-9.3-33.2,8.2-53.4Z" />
        <path class="st0"
            d="M366.2,79.3c-1.5,20.5,20.2,17.9,26.1,42.9,4.5,18.7,13.1,36.2,32.5,55.6-20.5-10.8-35.1-30.6-39.2-47.8-6.3-28.7-24.3-24.6-19.4-50.7Z" />
        <path class="st0"
            d="M305,137.1c9.3,18.3,26.5,5.2,44,23.5,13.1,13.8,29.1,25,56,31.7-23.1.7-45.5-8.6-57.5-21.6-19.8-20.5-33.2-8.2-42.5-33.6Z" />
        <path class="st0"
            d="M281.5,218.1c17.2,11.2,25.7-8.6,49.6-1.5,18.3,5.6,38.1,7.1,64.6-.4-19.8,12.3-44,15.3-60.8,10.1-27.6-8.2-33.2,9.3-53.4-8.2Z" />
        <path class="st0"
            d="M301.2,300.2c20.5,1.5,17.9-20.2,42.9-26.1,18.7-4.5,36.2-13.1,55.6-32.5-10.8,20.5-30.6,35.1-47.8,39.2-28.4,6.3-24.3,24.3-50.7,19.4Z" />
        <path class="st0"
            d="M359.4,361c18.3-9.3,5.2-26.5,23.5-44,13.8-13.1,25-29.1,31.7-56,.7,23.1-8.6,45.5-21.6,57.5-20.9,20.5-8.6,34-33.6,42.5Z" />
        <path class="st0"
            d="M440.4,384.9c11.2-17.2-8.6-25.7-1.5-49.6,5.6-18.3,7.1-38.1-.4-64.6,12.3,19.8,15.3,44,10.1,60.8-8.2,27.6,9.3,33.2-8.2,53.4Z" />
        <path class="st0"
            d="M522.5,365.1c1.5-20.5-20.2-17.9-26.1-42.9-4.5-18.7-13.1-36.2-32.5-55.6,20.5,10.8,35.1,30.6,39.2,47.8,6.3,28,24.3,24.6,19.4,50.7Z" />
        <path class="st0"
            d="M583.3,306.5c-9.3-18.3-26.5-5.2-44-23.5-13.1-13.8-29.1-25-56-31.7,23.1-.7,45.5,8.6,57.5,21.6,20.2,20.9,33.6,9,42.5,33.6Z" />
        <path class="st0"
            d="M607.2,225.9c-17.2-11.2-25.7,8.6-49.6,1.5-18.3-5.6-38.1-7.1-64.6.4,19.8-12.3,44-15.3,60.8-10.1,27.6,8.2,33.2-9.3,53.4,8.2Z" />
        <path class="st0"
            d="M587.4,143.8c-20.5-1.5-17.9,20.2-42.9,26.1-18.7,4.5-36.2,13.1-55.6,32.5,10.8-20.5,30.6-35.1,47.8-39.2,28-6.3,24.3-24.3,50.7-19.4Z" />
        <path class="st0"
            d="M528.9,82.6c-18.3,9.3-5.2,26.5-23.5,44-13.8,13.1-25,29.1-31.7,56-.7-23.1,8.6-45.5,21.6-57.5,20.9-19.8,9-33.2,33.6-42.5Z" />
        <path class="st0"
            d="M472.5,105c2.2,17.5-19,20.9-16,45.9,1.9,14.9,5.6,21.6-3.4,40.7,13.4-13.1,14.9-23.5,12.7-36.6-3.4-22.4,13.4-27.2,6.7-50Z" />
        <path class="st0"
            d="M410.2,106.1c10.4,13.8-6,28,8.6,47.8,9.3,11.9,15.7,15.7,17.2,36.6,5.2-18.3,1.5-27.6-7.5-38.4-13.4-16.8-1.1-29.1-18.3-45.9Z" />
        <path class="st0"
            d="M431.5,145.7c-4.1-13.1,6.7-22.8-2.6-40.7-5.6-10.4-2.6-23.5-10.1-31.3,5.6,11.2-2.6,21.6,3,31.3,8.6,15.3.7,24.3,9.7,40.7Z" />
        <path class="st0"
            d="M394.9,162.1c-10.1-9.7-5.6-23.1-22.8-33.6-10.1-6.7-13.8-19-24.6-22.4,10.4,6.7,8.6,20.2,18.3,25.7,15.7,9,13.1,20.5,29.1,30.2Z" />
        <path class="st0"
            d="M371.4,194.6c-13.4-3-16.4-17.2-36.6-17.9-11.9-.4-21.6-9.7-32.5-7.1,12.7.4,17.5,13.1,28.4,13.1,18.3.4,22.4,12.3,40.7,11.9Z" />
        <path class="st0"
            d="M367.3,234.5c-13.1,4.1-22.8-6.7-40.7,2.6-10.4,5.6-23.5,2.6-31.3,10.1,11.2-5.6,21.6,2.6,31.3-3,16-8.2,25,0,40.7-9.7Z" />
        <path class="st0"
            d="M384.1,271.1c-9.7,10.1-23.1,5.6-33.6,22.8-6.7,10.1-19,13.8-22.4,24.6,6.7-10.4,20.2-8.6,25.7-18.3,9.3-15.3,20.9-12.7,30.2-29.1Z" />
        <path class="st0"
            d="M416.9,295c-3,13.4-17.2,16.4-17.9,36.6-.4,11.9-9.7,21.6-7.1,32.5.4-12.7,13.1-17.5,13.1-28.4.4-18.7,11.9-22.4,11.9-40.7Z" />
        <path class="st0"
            d="M456.8,298.7c4.1,13.1-6.7,22.8,2.6,40.7,5.6,10.4,2.6,23.5,10.1,31.3-5.6-11.2,2.6-21.6-3-31.3-8.2-15.7-.4-24.6-9.7-40.7Z" />
        <path class="st0"
            d="M493.4,282.3c10.1,9.7,5.6,23.1,22.8,33.6,10.1,6.7,13.8,19,24.6,22.4-10.4-6.7-8.6-20.2-18.3-25.7-15.3-9.3-12.7-21.3-29.1-30.2Z" />
        <path class="st0"
            d="M517.3,249.4c13.4,3,16.4,17.2,36.6,17.9,11.9.4,21.6,9.7,32.5,7.1-12.7-.4-17.5-13.1-28.4-13.1-18.7-.7-22.4-11.9-40.7-11.9Z" />
        <path class="st0"
            d="M521,209.1c13.1-4.1,22.8,6.7,40.7-2.6,10.4-5.6,23.5-2.6,31.3-10.1-11.2,5.6-21.6-2.6-31.3,3-15.7,8.6-25,.7-40.7,9.7Z" />
        <path class="st0"
            d="M504.6,172.6c9.7-10.1,23.1-5.6,33.6-22.8,6.7-10.1,19-13.8,22.4-24.6-6.7,10.4-20.2,8.6-25.7,18.3-9.3,15.7-21.3,13.1-30.2,29.1Z" />
        <path class="st0"
            d="M471.8,149.4c3-13.4,17.2-16.4,17.9-36.6.4-11.9,9.7-21.6,7.1-32.5-.4,12.7-13.1,17.5-13.1,28.4-.7,18.3-11.9,22-11.9,40.7Z" />
        <path class="st0"
            d="M431.5,145.7c-4.1-13.1,6.7-22.8-2.6-40.7-5.6-10.4-2.6-23.5-10.1-31.3,5.6,11.2-2.6,21.6,3,31.3,8.6,15.3.7,24.3,9.7,40.7Z" />
        <path class="st0"
            d="M409.8,149.8c-1.5-13.8-14.9-18.7-12.7-38.4,1.5-11.9-6.7-22.8-2.6-32.8-1.5,12.7,10.4,19,9.3,30.2-2.2,17.5,8.6,22.4,6,41Z" />
        <path class="st0"
            d="M378.5,176.7c-7.8-11.2-22.4-8.6-30.2-27.2-4.9-10.8-17.2-16.4-18.7-27.2,5.2,11.2,18.7,11.2,23.1,21.3,6.3,16.8,18.7,16,25.7,33.2Z" />
        <path class="st0"
            d="M364.3,215.8c-12.7-6-23.5,3.4-39.6-8.2-9.7-7.1-23.1-5.6-29.9-13.8,10.1,7.5,21.6.4,30.6,7.1,14.6,10.4,23.9,3.7,38.8,14.9Z" />
        <path class="st0"
            d="M371.8,256.5c-13.8,1.5-18.7,14.9-38.4,12.7-11.9-1.5-22.8,6.7-32.8,2.6,12.7,1.5,19-10.4,30.2-9.3,17.5,2.6,22.8-8.2,41-6Z" />
        <path class="st0"
            d="M399,288.2c-11.2,7.8-8.6,22.4-27.2,30.2-10.8,4.9-16.4,17.2-27.2,18.7,11.2-5.2,11.2-18.7,21.3-23.1,16.8-7.1,16-18.7,33.2-25.7Z" />
        <path class="st0"
            d="M438.2,301.7c-6,12.7,3.4,23.5-8.2,39.6-7.1,9.7-5.6,23.1-13.8,29.9,7.5-10.1.4-21.6,7.1-30.6,10.1-13.8,3.7-23.9,14.9-38.8Z" />
        <path class="st0"
            d="M478.9,294.2c1.5,13.8,14.9,18.7,12.7,38.4-1.5,11.9,6.7,22.8,2.6,32.8,1.5-12.7-10.4-19-9.3-30.2,2.2-17.2-8.6-22.4-6-41Z" />
        <path class="st0"
            d="M510.2,267.3c7.8,11.2,22.4,8.6,30.2,27.2,4.9,10.8,17.2,16.4,18.7,27.2-5.2-11.2-18.7-11.2-23.1-21.3-6.7-17.2-18.7-16-25.7-33.2Z" />
        <path class="st0"
            d="M524,228.2c12.7,6,23.5-3.4,39.6,8.2,9.7,7.1,23.1,5.6,29.9,13.8-10.1-7.5-21.6-.4-30.6-7.1-14.2-10.1-23.9-3.4-38.8-14.9Z" />
        <path class="st0"
            d="M516.5,187.5c13.8-1.5,18.7-14.9,38.4-12.7,11.9,1.5,22.8-6.7,32.8-2.6-12.7-1.5-19,10.4-30.2,9.3-17.2-2.2-22.4,8.6-41,6Z" />
        <path class="st0"
            d="M489.7,156.1c11.2-7.8,8.6-22.4,27.2-30.2,10.8-4.9,16.4-17.2,27.2-18.7-11.2,5.2-11.2,18.7-21.3,23.1-17.2,6.3-16,18.7-33.2,25.7Z" />
        <path class="st0"
            d="M450.5,142c6-12.7-3.4-23.5,8.2-39.6,7.1-9.7,5.6-23.1,13.8-29.9-7.5,10.1-.4,21.6-7.1,30.6-10.1,14.6-3.7,24.6-14.9,38.8Z" />
        <path class="st0"
            d="M356.8,139c16,7.1,8.2,27.2,31.3,36.6,13.4,5.6,21.3,5.6,33.2,23.1-4.5-18.3-12.7-24.6-25.4-29.9-20.2-7.5-16-24.3-39.2-29.9Z" />
        <path class="st0"
            d="M327.4,193.5c17.5-2.2,20.9,19,45.9,16,14.9-1.9,21.6-5.6,40.7,3.4-13.1-13.4-23.5-14.9-36.6-12.7-23.1,3.4-27.2-12.7-50-6.7Z" />
        <path class="st0"
            d="M328.5,256.1c13.8-10.4,28,6,47.8-8.6,11.9-9.3,15.7-15.7,36.6-17.2-18.3-5.2-27.6-1.5-38.4,7.5-16.8,13.4-29.1,1.1-45.9,18.3Z" />
        <path class="st0"
            d="M360.9,309.1c7.1-16,27.2-8.2,36.6-31.3,5.6-13.4,5.6-21.3,23.1-33.2-18.3,4.5-24.6,12.7-29.9,25.4-7.1,20.5-23.9,16-29.9,39.2Z" />
        <path class="st0"
            d="M415.8,339c-2.2-17.5,19-20.9,16-45.9-1.9-14.9-5.6-21.6,3.4-40.7-13.4,13.1-14.9,23.5-12.7,36.6,3.4,22.8-13.1,27.2-6.7,50Z" />
        <path class="st0"
            d="M478.5,337.5c-10.4-13.8,6-28-8.6-47.8-9.3-11.9-15.7-15.7-17.2-36.6-5.2,18.3-1.5,27.6,7.5,38.4,13.4,17.2,1.1,29.5,18.3,45.9Z" />
        <path class="st0"
            d="M531.5,305.4c-16-7.1-8.2-27.2-31.3-36.6-13.4-5.6-21.3-5.6-33.2-23.1,4.5,18.3,12.7,24.6,25.4,29.9,20.5,7.1,16,23.5,39.2,29.9Z" />
        <path class="st0"
            d="M561.3,250.2c-17.5,2.2-20.9-19-45.9-16-14.9,1.9-21.6,5.6-40.7-3.4,13.1,13.4,23.5,14.9,36.6,12.7,22.8-3.4,27.2,13.4,50,6.7Z" />
        <path class="st0"
            d="M559.8,187.9c-13.8,10.4-28-6-47.8,8.6-11.9,9.3-15.7,15.7-36.6,17.2,18.3,5.2,27.6,1.5,38.4-7.5,17.2-13.1,29.5-1.1,45.9-18.3Z" />
        <path class="st0"
            d="M527.7,134.5c-7.1,16-27.2,8.2-36.6,31.3-5.6,13.4-5.6,21.3-23.1,33.2,18.3-4.5,24.6-12.7,29.9-25.4,7.1-20.2,23.5-16,29.9-39.2Z" />
    </g>
    <g id="goker">
        <polygon class="st1"
            points="495.8 246.4 497.8 243.7 498.4 223.6 494.1 205.3 491.8 194.8 489.7 185.5 487.7 177.6 482.5 162.7 475.7 152.4 467.9 147.4 449.2 146.3 421.9 153.4 419.2 175 420.3 191.1 427.4 216.8 429.4 228.7 436.6 243.7 440.2 245.3 433.9 264.6 436.5 313.8 508.1 310.1 495.8 246.4" />
        <path class="st9"
            d="M511.1,308.1s-21-5.1-20.1-7.7l-4.8-5.6c-4.4,6.4-7.2,9.6-14.9,10.8-7.7,1.2-21.3-2-28.8-5.4l-3.2,5.4-9.5-.3,2.1,97.7,99.7-.5-20.5-94.4Z" />
        <path class="st8"
            d="M477.1,184.3c-.2.1-.5-.1-.3-.3,1.5-2.8,4.2-4.8,7.3-5.5,1.2-.3,2.6-.3,3.6.5.9.7,1.3,2,1.6,3.1.1.6.3,1.2-.1,1.7-.3.3-.7.4-1.1.5-2,.2-4-.2-6-.4s-3.5-.3-4.9.5Z" />
        <path class="st8"
            d="M436.1,188.4c-.4.1-.7-.3-.5-.7,2.3-3.2,5.4-6.5,8.8-8,3.9-1.7,8.4-1,12.6-.2,2,.4,4.1.7,6.1,1.1.4,0,.9.2,1.3.5s.5.9.2,1.2c-.1.2-.3.2-.5.3-2.9,1.3-6.1,1.7-9.3,1.4-2.5-.3-4.9-1.1-7.4-.8-4.2.5-7.4,3.9-11.3,5.2Z" />
        <path class="st8"
            d="M479.7,216.9c-1.1-.7-2.3-1.3-3.5-1.6s-2.7,0-3.6,1c-.2.2-.3.4-.4.6,0,.5.6.9,1.1.9.9,0,1.8-.7,2.7-1.2s2.5-.6,3.7.2Z" />
        <path class="st3"
            d="M453.3,196.9c-2.2-.1-4.7-1.4-6.7-2.3,2.4-1.8,5.1-3.2,8-4.1.4-.1,1.4-.3,2.2-.3,2.1,0,2.9,2.7,3.1,3.4s-2.6,3.6-6.6,3.3Z" />
        <path class="st7"
            d="M454.2,190.9c-.9,1.1-.8,2.8-.3,3.6s1.5,1.5,2.5,1.2c.5-.1.9-.4,1.2-.8.5-.6.7-1.6.5-2.4s-.6-1.9-1.3-2.3c0,0-2.2.3-2.6.7Z" />
        <path class="st2"
            d="M487.1,191.8c-.3,1.5-.3,2.1-1.4,2.9s-2.2.6-4,.5-3.2-.6-4.7-2.2c1.7-1.8,4.4-3.4,6.7-3.8,1.3-.2,2.9,0,3.4,2.6Z" />
        <path class="st4" d="M466.9,213.9c-.4,1.3-.5,2.8,0,4s2,2.2,3.3,1.9" />
        <path class="st6"
            d="M486.2,190c.4.4.3.8.4,1.3.1.8,0,1.9-.5,2.5-.3.4-.7.7-1.1.8-.9.2-1.9-.4-2.3-1.3s-.7-2.4.2-3.5c0,0,2-1.4,3.4.2Z" />
        <path class="st4"
            d="M465.9,235.4c3.1,1.3,7.7,3.6,11.4,3.3,3.4-.3,7.8.7,8.4-4.7-.7-.7-1.3-1-2.7-1.3s-2,.2-2.9.4c-1.3.3-3.1,0-4.4,0-2.4,0-6.6,2.1-9.7,2.4Z" />
        <path class="st4" d="M485.7,234s1.4-4.3-.8-5.4" />
        <path class="st4"
            d="M476.1,185.7c-.8,1-1,3.6-.9,4.9s.7,2.6,1.3,3.8c2.1,4.1,4.4,7,7.1,10.6,1.2,1.6,2.2,3.8,2.2,5.8,0,1.9-2,5.4-3,7.2" />
        <path class="st3" d="M444.3,191.6c.9-.9,1.7-1.7,2.7-2.4s2.2-1.2,3.4-1.3" />
        <path class="st4" d="M477.5,228.7c1.4-.7,3.5.3,4.2.3s2.4-.9,3.1-.4" />
        <g>
            <ellipse class="st1" cx="483.3" cy="190.9" rx=".6" ry=".5" transform="translate(243 651.6) rotate(-84)" />
            <ellipse class="st1" cx="483.3" cy="191.9" rx=".4" ry=".5" transform="translate(-21.3 66.3) rotate(-7.7)" />
        </g>
        <g>
            <ellipse class="st1" cx="454.7" cy="192.4" rx=".7" ry=".6"
                transform="translate(204.9 618.3) rotate(-82.5)" />
            <ellipse class="st1" cx="454.7" cy="193.6" rx=".5" ry=".6" transform="translate(-24.6 73.3) rotate(-9)" />
        </g>
        <path class="st2"
            d="M476.9,193c1.3-1.7,3.1-3,5-3.7.8-.3,2-.7,2.8-.7,2,.1,2.4,2.5,2.4,3.3,0,0-.3,3.2-2.6,3.5-5,.7-7.6-2.3-7.6-2.3Z" />
        <path class="st3"
            d="M446.6,194.5c1.7-1.2,3.4-2.6,5.3-3.4s3.4-1.5,5.4-1,2.8,2.6,2.6,3.5c-.6,2.7-4.8,4.3-8.3,3" />
        <ellipse class="st1" cx="485.3" cy="193.4" rx=".3" ry=".2" transform="translate(162.1 603.8) rotate(-73.5)" />
        <ellipse class="st1" cx="457.2" cy="194.4" rx=".4" ry=".3" transform="translate(145.5 581.2) rotate(-74.2)" />
        <g>
            <path class="st12"
                d="M480.5,266.8c3.9-1.6,1.5,18.9-.3,25.7s2,9.9,5.9,12.7c4.7,3.3,11.7,3.2,15,8,3.7,5.5-.4,13.7,3.1,19.4,2.6,4.2,8.6,5.4,11.2,9.6,1.5,2.5,1.5,5.7,1.2,8.7-.3,3-.8,6,0,8.9.6,2.5,2.5,11.1,4.9,13.5,0,0,0,0,0,0,0,0,0,0,0,0,.1.1.3.2.4.3,2.3,2,2.9,4.6,2.4,7.2-.6,2.7-2.3,5.1-3.1,7.8-1.3,4.1-.2,8.6,1.9,12.4l676.8.9v-13.8c-62.3,4.1-63-39.3-126.4-32.7-22.6,2.4-44.6,7.6-67.1,10.1-23.2,2.5-45,2.9-67.1-5.1-33.4-12.1-71.3-17-104-3-17.6,7.6-35.4,8.1-45.1,8.5-21.6,1-48.3-16.1-69.1-21.9-23.5-6.6-48.4-1.8-72.9-1.5-24.4.3-34-17.9-66.4-24.5-7.8-1.5-18.1-8.9-21.1-16.2-2.3-5.5-6.6-10.2-10.6-14.7-4.8-5.4-13.6-6-18.1-11.7-6.1-7.6-1.1-19.3-4.5-28.5-2.2-5.8-7.3-9.8-11.7-14.2-12.2-12.2-26.7-47.2-26.7-47.2.5,2.4,0,5.3,0,7.6-.3,6.6,3.5,10.3,3.8,14,.5,6-1.3,10.3-1.5,19.2-.5-1.3-1.7-2-2.7-2.9-1.5-1.5-3-3.1-5-3.5-1.6-.4-3,.5-4.6.6-1.9.2-4-.3-5.8.3-2.7.9-4.8,3.1-7,4.7-1.4,1-3.1,1.3-4.4,2.6-2.9,3-5.1,4.4-4.6,9.4.1,1.1-.4,2-.9,2.4-.7.5-2.9-.2-4.1-1.3-3.8-3.5-9.6-5.9-13.6-9.5-.7-.7-1.2-1.6-1.3-2.6-1.1-10.7-4-20.2-6.8-30.6-2.4-8.6-4.1-20.4-2.7-29.2,1.4-8.8,14.1-15,19-14.4,3.7.5,7.2,1.3,10.8,2,3.2.6,7.5-.4,9.7-2.9.8-.9,1.9-.8,2.9-.2.5.3,2.9,2.8,3.4,3.5,5.5,7.4,8.7,10.4,13.3,23-.3-4.2-2.2-13.9-5.4-19-2.9-4.8-6.4-9.4-11.7-11.4-.8-6.4-7.8-10.1-13.9-11.9-6.2-1.8-12.8-.9-19,.7-14.9,3.9-28.8,12-38.2,24.2-18.8,24.4-16.8,60.8-37,84.1-5.5,6.4-13,12.5-13.4,21-.1,3.4.9,7.2-.9,10.1-1.5,2.3-4.3,3.3-6.1,5.4-4.1,4.8-1,12.5-3.6,18.3-2.2,5-11.7,10.1-16.2,13.1-9.2,6-12.7,19-13.2,25.1-1.2,14.8-19.5,12.2-32,9.5-11.7-2.5-24.2,1-35.5,4.8-11.7,3.9-21.8,12-33.6,15.7-28.9,9-62.3-9.7-89.8,3.2-11.4,5.4-20.2,15.7-32.1,19.9-21.9,7.7-45.4-7.7-68.5-5.8-5.4.5-12.3,1.8-17.2,3.9v13.8l458.7-.9c2.3-5.9-2.8-10.7-7.4-13-2.3-1.1-4.9-1.1-7.4-1.5-2.5-.5-5.2-1.7-5.9-4.1-1-3.2,2.2-5.1,3.9-8.6h0c1.8-5.9,3-13.1,0-18.5-1-1.9-2.6-4.9-3.4-6.9-.9-2-.7-5.3.2-7.3,2.1-4.3,5.9-6.7,4.8-10-1.1-3.6-2.1-7.6-1.8-11.4.5-5.5,3.1-7.5,3.7-13,.6-5.5-3.6-9.7-1.1-17.6,1.9-6.1-7.5-22-6.2-28.3,0-.2,9.8,4.5,17.7,6.9s13.3,3.6,24.7-1ZM488.5,239.7c-.2,1.3-.9,2.7-2.1,2.1-.6-.3-2.1-2.5-2.8-2.6-3.3-.6-6,0-9,.2-2.8.3-4.6,3.2-6.3,5.2-.5.6-1.1,1.3-1.9,1.3-1.1,0-1.8-1.1-2.1-2.1-.9-2.9-.2-6.1,1.6-8.5.6-.8,3.1-2.7,4.4-3.1,1.6-.6,5.7-2.8,9.9-4.5,1.8-.7,3.2-.3,4.7.8.5.3,1.1.6,1.2.7,1.1.8,1.9,3.8,2.2,5.7.2,1.3.4,3.3.1,4.7Z" />
            <g>
                <polyline class="st5" points="0 388.1 0 401.9 458.5 401" />
                <polyline class="st5" points="523.2 401 1200 401.9 1200 388.4" />
            </g>
        </g>
    </g>
    <style>
        @keyframes pulse {

            0%,
            100% {
                opacity: 0.6;
                transform: scale(1);
            }

            50% {
                opacity: 1;
                transform: scale(1.05);
            }
        }

        @keyframes rotate {
            0% {
                transform: rotate(0deg);
            }

            100% {
                transform: rotate(360deg);
            }
        }

        @keyframes rotateBack {
            0% {
                transform: rotate(0deg);
            }

            100% {
                transform: rotate(-360deg);
            }
        }


        #light-rays {
            animation: pulse 4s ease-in-out infinite, rotateBack 160s linear infinite;
            transform-origin: 444px 222px;
        }

        #sun {
            animation: rotate 31s linear infinite;
            transform-origin: 444px 222px;
        }
    </style>
</svg>