<?xml version="1.0" encoding="UTF-8"?>
<svg id="Layer_1" xmlns="http://www.w3.org/2000/svg" version="1.1" viewBox="0 0 1024 768">
  <defs>
    <style>
        @keyframes blink {
        0% {
        transform: scaleY(1);
        }
        1% {
        transform: scaleY(0);
        }
        4% {
        transform: scaleY(0);
        }
        6% {
        transform: scaleY(1);
        }
        100% {
        transform: scaleY(1);
        }
        }
        #eyelid-path {
        animation: blink 3s ease-in-out infinite;
        transform-origin: center 60%;
        transform-box: fill-box;
        }
    </style>
    <mask id="mask" x="401" y="277" width="222.8" height="113.6" maskUnits="userSpaceOnUse">
      <g id="eyelid-mask">
        <path id="eyelid-path" fill="white" d="M451.7,390.6c-28,0-50.7-24.9-50.7-55.6s22.7-55.6,50.7-55.6,50.7,24.9,50.7,55.6-22.7,55.6-50.7,55.6ZM573.5,383.6c-27.8,0-50.3-23.9-50.3-53.3s22.5-53.3,50.3-53.3,50.3,23.9,50.3,53.3-22.5,53.3-50.3,53.3Z"/>
      </g>
    </mask>
  </defs>
  <rect fill="#fb2" width="1024" height="768"/>
  <g>
    <path fill="black" d="M645.4,325.2c-2.3-42.5-36.9-75.1-77.2-73-24.6,1.3-45.8,15.3-57.9,35.7-14.2-20.8-37.4-33.8-62.8-32.5-40.4,2.2-71.2,39.7-68.9,83.9s37,78.2,77.4,76.1c15.5-.9,30.2-7,41.8-17.3,3.3,12,7.4,23.3,11.6,35.4.7,2,.1,4.2-1.5,5.6-15.6,13.8-48.9,41.5-59.8,53.1-21.8,22.2-26.5,34.6,8,11.2,24-15.1,51.3-29.7,70.7-47.9,11.2-9.4,10.2-21.1,4.7-33.4-5.9-12.1-9.3-24.1-11.2-39.2,14.2,15.2,34.3,24.2,56.1,23,40.4-2.1,71.3-38.3,69-80.8ZM451.8,390.5c-28,0-50.7-24.9-50.7-55.6s22.7-55.6,50.7-55.6,50.7,24.9,50.7,55.6-22.7,55.6-50.7,55.6ZM573.6,383.5c-27.8,0-50.3-23.9-50.3-53.3s22.5-53.3,50.3-53.3,50.3,23.9,50.3,53.3-22.5,53.3-50.3,53.3Z"/>
    <g fill="black" mask="url(#mask)">
      <g>
        <circle cx="452.7" cy="334.4" r="15.7"/>
        <circle cx="573.5" cy="330.3" r="15.7"/>
      </g>
    </g>
  </g>
</svg>