<?xml version="1.0" encoding="UTF-8"?>
<svg id="Logo" xmlns="http://www.w3.org/2000/svg" version="1.1" viewBox="0 0 600 350">
  <path d="M293.8,133.9c-2.3-42.5-36.9-75.1-77.2-73-24.6,1.3-45.8,15.3-57.9,35.7-14.2-20.8-37.4-33.8-62.8-32.5-40.4,2.2-71.2,39.7-68.9,83.9s37,78.2,77.4,76.1c15.5-.9,30.2-7,41.8-17.3,3.3,12,7.4,23.3,11.6,35.4.7,2,.1,4.2-1.5,5.6-15.6,13.8-48.9,41.5-59.8,53.1-21.8,22.2-26.5,34.6,8,11.2,24-15.1,51.3-29.7,70.7-47.9,11.2-9.4,10.2-21.1,4.7-33.4-5.9-12.1-9.3-24.1-11.2-39.2,14.2,15.2,34.3,24.2,56.1,23,40.4-2.1,71.3-38.3,69-80.8ZM100.1,199.3c-28,0-50.7-24.9-50.7-55.6s22.7-55.6,50.7-55.6,50.7,24.9,50.7,55.6-22.7,55.6-50.7,55.6ZM221.9,192.3c-27.8,0-50.3-23.9-50.3-53.3s22.5-53.3,50.3-53.3,50.3,23.9,50.3,53.3-22.5,53.3-50.3,53.3Z"/>
  <path d="M572.5,85.3c-12.4-33.3-59.3-49.1-81.6-14.4-4.1-17.1-24.1-26.5-41.3-23.7-20.8,3-37,18.3-45.5,35.7-14.3,29.3-9.6,66.5,13.7,90.4h0c-18.8,14.8-38.6,5.7-50.8-12-7.2-9.9-13.1-20.7-17.5-32.1-2.8-2.7-7.5-3.8-10.2-4.2,8.1-19.8,27.6-45.2,40.4-55.1,9.7-8.6,19-14.7,20.1-17.8-.7-5.3-18.3,1.9-27.5,6.7-22.7,11.6-43.5,32-54.2,53.6-3.2-13.2-5.1-27.8-11.3-40-1.2-2.3-3.5-4.8-5.6-5.6-4.1-1.5-9.1-1.1-12.1,1.1-3.5,2.5-5.5,7-4,10.9,17.9,47,13.9,94.6,13,111.4-.2,6.7,5,12.2,11.7,12.5,0,0,0,0,0,0h.4c6.5.3,12.1-4.4,12.8-10.8,1.3-13.6,3.5-31.3,7.6-44.3,18.6,43.3,60.5,78.6,106.2,41.7,15.9,10.7,35.9,15.9,55.1,15.6,17.5-1.7,30.2-13.1,24-30.4-13-28.2-23.9-129.4,34.4-98.5,5.9,1.5,26.8,24.5,22.3,9.6ZM435,156c-7.1-7.9-11.8-17.6-13.5-28.1-1.5-10.6-.3-21.4,3.5-31.5,3.6-9.2,10.5-18,19.3-22.8,10-6.2,25.5-3.6,23.2,9.9-.7,10.6-5.5,22-10,32.3-6.1,13.9-13.1,28-22.5,40.1h0ZM488.8,181.1c-12.1-.7-24.7-3.3-35-9.6,11.4-14.4,19.6-30.8,26.8-47.4.8,19.2,4.2,38.5,11.2,56.4-1,.2-2,.4-3,.6Z"/>
  <circle cx="101.1" cy="143.2" r="15.7"/>
  <circle cx="221.9" cy="139.1" r="15.7"/>
</svg>